<svg width="38" height="38" viewBox="0 0 38 38" fill="none" xmlns="http://www.w3.org/2000/svg">
<defs>
<clipPath id="fileClip">
<path d="M10 7C10 5.895 10.895 5 12 5H23L29 11V31C29 32.105 28.105 33 27 33H12C10.895 33 10 32.105 10 31V7Z"/>
</clipPath>
</defs>
<!-- 文件主体 -->
<path d="M10 7C10 5.895 10.895 5 12 5H23L29 11V31C29 32.105 28.105 33 27 33H12C10.895 33 10 32.105 10 31V7Z" fill="white" stroke="#475167"/>
<!-- 折角 -->
<path d="M23 5V9C23 10.105 23.895 11 25 11H29L23 5Z" fill="#E2E5EC" stroke="#475167" stroke-linejoin="round"/>
<!-- 底部色带 -->
<rect x="10" y="24" width="19" height="9" fill="#475167" clip-path="url(#fileClip)"/>
<!-- "md" 文字 -->
<text x="19.5" y="31" text-anchor="middle" fill="white" font-family="Arial, Helvetica, sans-serif" font-size="7" font-weight="bold">md</text>
<!-- 奶瓶轮廓（简化，上半部分） -->
<g transform="translate(19.5,16.5) scale(0.6) translate(-19,-19)">
<path d="M21.5 13.5V14.6492C21.5 14.8763 21.5773 15.0966 21.7191 15.2739L23.2809 17.2261C23.4227 17.4034 23.5 17.6237 23.5 17.8508V24.5C23.5 25.0523 23.0523 25.5 22.5 25.5H15.5C14.9477 25.5 14.5 25.0523 14.5 24.5V17.8508C14.5 17.6237 14.5773 17.4034 14.7191 17.2261L16.2809 15.2739C16.4227 15.0966 16.5 14.8763 16.5 14.6492V13.5C16.5 12.9477 16.9477 12.5 17.5 12.5H20.5C21.0523 12.5 21.5 12.9477 21.5 13.5Z" stroke="#475167"/>
<path d="M23.5 23.4834C23.5 24.2376 23.5 24.1423 23.5 24.5711C23.5 25.5 23.5 25 23.5 25.5C21.8842 25.5 17.0138 25.5 14.5 25.5C14.5 24.5711 14.5 24.0373 14.5 23.4834C13.0908 23.4834 16.0959 23.4834 14.5 23.4834C15.4949 23.4834 16.0857 22.3957 18.7928 23.4834C21.5 24.5711 23.5 23.4834 23.5 23.4834Z" fill="#475167"/>
<path d="M16.5 14.5H21.5" stroke="#475167"/>
</g>
</svg>
